<mxfile host="65bd71144e">
    <diagram id="fa9ey3oAcHNUL7HPasT7" name="Trang-1">
        <mxGraphModel dx="849" dy="451" grid="1" gridSize="10" guides="1" tooltips="1" connect="1" arrows="1" fold="1" page="1" pageScale="1" pageWidth="827" pageHeight="1169" math="0" shadow="0">
            <root>
                <mxCell id="0"/>
                <mxCell id="1" parent="0"/>
                <mxCell id="6" style="edgeStyle=none;html=1;fontSize=12;entryX=0.5;entryY=1;entryDx=0;entryDy=0;" edge="1" parent="1" source="2" target="4">
                    <mxGeometry relative="1" as="geometry">
                        <mxPoint x="120" y="255" as="targetPoint"/>
                        <Array as="points">
                            <mxPoint x="130" y="345"/>
                        </Array>
                    </mxGeometry>
                </mxCell>
                <mxCell id="7" style="edgeStyle=none;html=1;exitX=1;exitY=0.5;exitDx=0;exitDy=0;entryX=0.5;entryY=1;entryDx=0;entryDy=0;fontSize=12;" edge="1" parent="1" source="2" target="5">
                    <mxGeometry relative="1" as="geometry">
                        <Array as="points">
                            <mxPoint x="413" y="345"/>
                        </Array>
                    </mxGeometry>
                </mxCell>
                <mxCell id="15" style="edgeStyle=none;html=1;exitX=0.5;exitY=1;exitDx=0;exitDy=0;entryX=0.5;entryY=0;entryDx=0;entryDy=0;fontSize=12;" edge="1" parent="1" source="2" target="8">
                    <mxGeometry relative="1" as="geometry"/>
                </mxCell>
                <mxCell id="2" value="&lt;font style=&quot;font-size: 12px;&quot;&gt;Instagram&lt;/font&gt;" style="rounded=0;whiteSpace=wrap;html=1;fontSize=12;" vertex="1" parent="1">
                    <mxGeometry x="180" y="315" width="120" height="60" as="geometry"/>
                </mxCell>
                <mxCell id="4" value="&lt;font style=&quot;font-size: 12px;&quot;&gt;Chat&lt;br style=&quot;font-size: 12px;&quot;&gt;-mã phòng chat&lt;br style=&quot;font-size: 12px;&quot;&gt;+ mã thành viên&lt;br style=&quot;font-size: 12px;&quot;&gt;=Tin nhắn + tgian&lt;br style=&quot;font-size: 12px;&quot;&gt;&lt;br style=&quot;font-size: 12px;&quot;&gt;&lt;/font&gt;" style="rounded=0;whiteSpace=wrap;html=1;fontSize=12;" vertex="1" parent="1">
                    <mxGeometry x="65" y="160" width="130" height="90" as="geometry"/>
                </mxCell>
                <mxCell id="14" style="edgeStyle=none;html=1;exitX=1;exitY=0.5;exitDx=0;exitDy=0;fontSize=12;" edge="1" parent="1" source="5" target="11">
                    <mxGeometry relative="1" as="geometry"/>
                </mxCell>
                <mxCell id="5" value="Post&amp;nbsp;&lt;br style=&quot;font-size: 12px;&quot;&gt;- nội dung&lt;br style=&quot;font-size: 12px;&quot;&gt;+ tgian post" style="rounded=0;whiteSpace=wrap;html=1;fontSize=12;" vertex="1" parent="1">
                    <mxGeometry x="360" y="160" width="105" height="115" as="geometry"/>
                </mxCell>
                <mxCell id="8" value="Follow&lt;br style=&quot;font-size: 12px;&quot;&gt;-mã người follow(2 chiều)&lt;br style=&quot;font-size: 12px;&quot;&gt;+ nhận thông báo về post&lt;br style=&quot;font-size: 12px;&quot;&gt;= nhận tin nhắn" style="rounded=0;whiteSpace=wrap;html=1;fontSize=12;" vertex="1" parent="1">
                    <mxGeometry x="152.5" y="420" width="175" height="85" as="geometry"/>
                </mxCell>
                <mxCell id="11" value="Comment&lt;br style=&quot;font-size: 12px;&quot;&gt;- mã user&lt;br style=&quot;font-size: 12px;&quot;&gt;+ nội dung&lt;br style=&quot;font-size: 12px;&quot;&gt;= người dc tag" style="rounded=0;whiteSpace=wrap;html=1;fontSize=12;" vertex="1" parent="1">
                    <mxGeometry x="560" y="175" width="90" height="85" as="geometry"/>
                </mxCell>
                <mxCell id="16" value="&lt;h1&gt;Algorythm&lt;/h1&gt;&lt;p&gt;lưu trữ thông tin vào trong firebase&lt;/p&gt;" style="text;html=1;strokeColor=none;fillColor=none;spacing=5;spacingTop=-20;whiteSpace=wrap;overflow=hidden;rounded=0;fontSize=12;" vertex="1" parent="1">
                    <mxGeometry x="560" y="260" width="190" height="120" as="geometry"/>
                </mxCell>
            </root>
        </mxGraphModel>
    </diagram>
</mxfile>